<svg width="1200" height="630" viewBox="0 0 1200 630" fill="none" xmlns="http://www.w3.org/2000/svg">
  <rect width="1200" height="630" fill="#020617"/>
  <rect x="40" y="40" width="1120" height="550" rx="24" fill="#0f172a" stroke="#334155" stroke-width="2"/>
  
  <!-- Logo Icon -->
  <circle cx="600" cy="240" r="80" fill="#1e293b" stroke="#818cf8" stroke-width="4"/>
  <circle cx="580" cy="210" r="8" fill="#818cf8"/>
  <circle cx="620" cy="230" r="8" fill="#a78bfa"/>
  <circle cx="560" cy="250" r="8" fill="#c4b5fd"/>
  <circle cx="640" cy="260" r="8" fill="#818cf8"/>
  <path d="M600 180 C560 180 530 210 530 250 C530 290 560 320 600 320 C610 320 618 312 618 302 C618 296 615 291 610 286 C605 281 602 276 602 268 C602 256 612 246 624 246 L640 246 C680 246 710 216 710 180 C710 150 670 180 600 180 Z" stroke="#818cf8" stroke-width="4" fill="none"/>
  
  <!-- Title -->
  <text x="600" y="400" text-anchor="middle" font-family="Inter, system-ui, sans-serif" font-size="64" font-weight="700" fill="white">Logo Studio AI</text>
  
  <!-- Subtitle -->
  <text x="600" y="460" text-anchor="middle" font-family="Inter, system-ui, sans-serif" font-size="28" fill="#94a3b8">Create Professional Logos with AI</text>
  
  <!-- Features -->
  <text x="600" y="520" text-anchor="middle" font-family="Inter, system-ui, sans-serif" font-size="20" fill="#64748b">Gemini • Imagen • Multiple Styles • Instant Generation</text>
</svg>
